<svg width="40" height="20" viewBox="0 0 40 20" fill="none" xmlns="http://www.w3.org/2000/svg">
<path d="M18.4 11.3356C13.8298 11.1066 3.89051 8.51884 0.694962 0C-1.2123 3.89303 -0.34144 11.6104 18.4 11.3356Z" fill="#3CC8A1"/>
<path d="M16.8887 12.2516C13.3981 12.2897 5.66106 11.7478 2.63826 9.27455C2.42233 11.8317 4.97014 16.0072 16.8887 12.2516Z" fill="#3CC8A1"/>
<path d="M17.1046 13.0531C14.0458 14.0072 7.36677 15.595 5.12124 14.3126C5.37314 16.4499 8.12247 19.1903 17.1046 13.0531Z" fill="#3CC8A1"/>
<path d="M17.3204 14.0836C15.1972 15.5721 10.5624 18.4117 9.00767 17.8621C9.65541 19.3506 12.2248 20.6788 17.3204 14.0836Z" fill="#3CC8A1"/>
<path d="M17.8602 14.9996C16.7806 16.4881 14.3624 19.488 13.326 19.5796C14.0098 20.381 15.8738 20.5872 17.8602 14.9996Z" fill="#3CC8A1"/>
<path d="M21.6 11.3356C26.1702 11.1066 36.1095 8.51884 39.3051 0C41.2123 3.89303 40.3415 11.6104 21.6 11.3356Z" fill="#3CC8A1"/>
<path d="M23.1114 12.2516C26.602 12.2897 34.3391 11.7478 37.3619 9.27455C37.5779 11.8317 35.0301 16.0072 23.1114 12.2516Z" fill="#3CC8A1"/>
<path d="M22.8954 13.0531C25.9542 14.0072 32.6332 15.595 34.8788 14.3126C34.6268 16.4499 31.8776 19.1903 22.8954 13.0531Z" fill="#3CC8A1"/>
<path d="M22.6796 14.0836C24.8028 15.5721 29.4376 18.4117 30.9922 17.8621C30.3446 19.3506 27.7752 20.6788 22.6796 14.0836Z" fill="#3CC8A1"/>
<path d="M22.1399 14.9996C23.2195 16.4881 25.6377 19.488 26.6741 19.5796C25.9903 20.381 24.1263 20.5872 22.1399 14.9996Z" fill="#3CC8A1"/>
</svg>
