<svg width="23" height="24" viewBox="0 0 23 24" fill="none" xmlns="http://www.w3.org/2000/svg">
<path d="M21.4844 18.9375C22.8438 21.1406 21.25 24 18.6719 24H4.28125C1.70312 24 0.109375 21.1406 1.46875 18.9375L7 10.0781L6.90625 3H6.57812C5.96875 3 5.5 2.53125 5.5 1.875V1.125C5.5 0.515625 5.96875 0 6.625 0H16.2812C16.8438 0 17.3594 0.515625 17.3594 1.125V1.875C17.3594 2.53125 16.8906 3 16.2812 3H15.9531V10.0781L21.4844 18.9375ZM7.42188 15H15.4844L13.2344 11.3906C13.0938 11.1562 12.9531 10.8281 12.9531 10.5V3H9.95312V10.5C9.95312 10.8281 9.85938 11.1562 9.67188 11.3906L7.42188 15Z" fill="#3CC8A1"/>
</svg>
