<svg width="16" height="20" viewBox="0 0 16 20" fill="none" xmlns="http://www.w3.org/2000/svg">
<path d="M13.625 2.5C14.6406 2.5 15.5 3.35938 15.5 4.375V18.125C15.5 19.1797 14.6406 20 13.625 20H2.375C1.32031 20 0.5 19.1797 0.5 18.125V4.375C0.5 3.35938 1.32031 2.5 2.375 2.5H4.44531C4.99219 1.05469 6.35938 0 8 0C9.60156 0 10.9688 1.05469 11.5156 2.5H13.625ZM4.25 15.3125C4.75781 15.3125 5.1875 14.9219 5.1875 14.375C5.1875 13.8672 4.75781 13.4375 4.25 13.4375C3.70312 13.4375 3.3125 13.8672 3.3125 14.375C3.3125 14.9219 3.70312 15.3125 4.25 15.3125ZM4.25 11.5625C4.75781 11.5625 5.1875 11.1719 5.1875 10.625C5.1875 10.1172 4.75781 9.6875 4.25 9.6875C3.70312 9.6875 3.3125 10.1172 3.3125 10.625C3.3125 11.1719 3.70312 11.5625 4.25 11.5625ZM8 2.5C7.29688 2.5 6.75 3.08594 6.75 3.75C6.75 4.45312 7.29688 5 8 5C8.66406 5 9.25 4.45312 9.25 3.75C9.25 3.08594 8.66406 2.5 8 2.5ZM12.375 15C12.6875 15 13 14.7266 13 14.375C13 14.0625 12.6875 13.75 12.375 13.75H7.375C7.02344 13.75 6.75 14.0625 6.75 14.375C6.75 14.7266 7.02344 15 7.375 15H12.375ZM12.375 11.25C12.6875 11.25 13 10.9766 13 10.625C13 10.3125 12.6875 10 12.375 10H7.375C7.02344 10 6.75 10.3125 6.75 10.625C6.75 10.9766 7.02344 11.25 7.375 11.25H12.375Z" fill="white"/>
</svg>
