<svg width="26" height="20" viewBox="0 0 26 20" fill="none" xmlns="http://www.w3.org/2000/svg">
<path d="M14.875 0C15.8906 0 16.75 0.859375 16.75 1.875V3.75H18.7031C19.3672 3.75 19.9922 4.02344 20.5 4.49219L23.5078 7.5C23.9766 7.96875 24.25 8.63281 24.25 9.29688V13.75C24.9141 13.75 25.5 14.3359 25.5 15C25.5 15.7031 24.9141 16.25 24.25 16.25H23C23 18.3203 21.3203 20 19.25 20C17.1406 20 15.5 18.3203 15.5 16.25H10.5C10.5 18.3203 8.82031 20 6.75 20C4.64062 20 3 18.3203 3 16.25H2.375C1.32031 16.25 0.5 15.4297 0.5 14.375V1.875C0.5 0.859375 1.32031 0 2.375 0H14.875ZM16.75 6.25V10H21.75V9.29688L18.7031 6.25H16.75ZM6.75 14.375C5.69531 14.375 4.875 15.2344 4.875 16.25C4.875 17.3047 5.69531 18.125 6.75 18.125C7.76562 18.125 8.625 17.3047 8.625 16.25C8.625 15.2344 7.76562 14.375 6.75 14.375ZM19.25 18.125C20.2656 18.125 21.125 17.3047 21.125 16.25C21.125 15.2344 20.2656 14.375 19.25 14.375C18.1953 14.375 17.375 15.2344 17.375 16.25C17.375 17.3047 18.1953 18.125 19.25 18.125ZM4.875 6.875C4.875 7.22656 5.14844 7.5 5.5 7.5H7.375V9.375C7.375 9.72656 7.64844 10 8 10H9.25C9.5625 10 9.875 9.72656 9.875 9.375V7.5H11.75C12.0625 7.5 12.375 7.22656 12.375 6.875V5.625C12.375 5.3125 12.0625 5 11.75 5H9.875V3.125C9.875 2.8125 9.5625 2.5 9.25 2.5H8C7.64844 2.5 7.375 2.8125 7.375 3.125V5H5.5C5.14844 5 4.875 5.3125 4.875 5.625V6.875Z" fill="white"/>
</svg>
