<svg width="18" height="20" viewBox="0 0 18 20" fill="none" xmlns="http://www.w3.org/2000/svg">
<path d="M10.875 0C11.5391 0 12.125 0.585938 12.125 1.25C12.125 1.95312 11.5391 2.5 10.875 2.5H10.25V3.86719C11.6953 4.10156 13.0234 4.6875 14.1172 5.58594L14.9766 4.76562C15.4453 4.25781 16.2656 4.25781 16.7344 4.76562C17.2422 5.23438 17.2422 6.05469 16.7344 6.52344L15.7969 7.46094C16.6172 8.75 17.125 10.2734 17.125 11.875C17.125 16.3672 13.4531 20 9 20C4.50781 20 0.875 16.3672 0.875 11.875C0.875 7.8125 3.84375 4.45312 7.75 3.86719V2.5H7.125C6.42188 2.5 5.875 1.95312 5.875 1.25C5.875 0.585938 6.42188 0 7.125 0H10.875ZM9.9375 7.5C9.9375 6.99219 9.50781 6.5625 9 6.5625C8.45312 6.5625 8.0625 6.99219 8.0625 7.5V12.5C8.0625 13.0469 8.45312 13.4375 9 13.4375C9.50781 13.4375 9.9375 13.0469 9.9375 12.5V7.5Z" fill="white"/>
</svg>
