<svg width="18" height="20" viewBox="0 0 18 20" fill="none" xmlns="http://www.w3.org/2000/svg">
<path d="M12.8672 2.03125C15.7188 4.64844 17.75 8.94531 17.75 11.0156C17.75 15.9766 13.8047 20 9 20C4.15625 20 0.25 15.9766 0.25 11.0156C0.25 8.20312 2.94531 3.59375 6.8125 0C8.29688 1.40625 9.625 2.89062 10.6797 4.375C11.3438 3.55469 12.0469 2.77344 12.8672 2.03125ZM12.125 15.3125C14.0391 13.9844 14.4688 11.3672 13.4141 9.33594C13.2969 9.10156 13.1406 8.82812 12.9844 8.55469L10.6797 11.1719C10.6797 11.1719 7.08594 6.5625 6.8125 6.25C4.9375 8.55469 4 9.88281 4 11.3672C4 14.4141 6.26562 16.25 9.07812 16.25C10.2109 16.25 11.2656 15.8984 12.125 15.3125Z" fill="#FF9741"/>
</svg>
