<svg width="57" height="28" viewBox="0 0 57 28" fill="none" xmlns="http://www.w3.org/2000/svg">
<path d="M26.26 15.8698C19.8618 15.5492 5.94671 11.9264 1.47295 0C-1.19722 5.45024 0.0219842 16.2545 26.26 15.8698Z" fill="white"/>
<path d="M24.1441 17.1522C19.2573 17.2056 8.42549 16.4469 4.19356 12.9844C3.89127 16.5644 7.45819 22.4101 24.1441 17.1522Z" fill="white"/>
<path d="M24.4465 18.2743C20.1641 19.6101 10.8135 21.833 7.66974 20.0376C8.0224 23.0299 11.8715 26.8664 24.4465 18.2743Z" fill="white"/>
<path d="M24.7485 19.717C21.776 21.8009 15.2873 25.7764 13.1107 25.0069C14.0176 27.0908 17.6147 28.9504 24.7485 19.717Z" fill="white"/>
<path d="M25.5042 20.9994C23.9928 23.0833 20.6073 27.2832 19.1563 27.4114C20.1137 28.5334 22.7233 28.8221 25.5042 20.9994Z" fill="white"/>
<path d="M30.74 15.8698C37.1383 15.5492 51.0532 11.9264 55.5271 0C58.1972 5.45024 56.9781 16.2545 30.74 15.8698Z" fill="white"/>
<path d="M32.856 17.1522C37.7429 17.2056 48.5747 16.4469 52.8066 12.9844C53.109 16.5644 49.5421 22.4101 32.856 17.1522Z" fill="white"/>
<path d="M32.5536 18.2743C36.8359 19.6101 46.1865 21.833 49.3304 20.0376C48.9776 23.0299 45.1287 26.8664 32.5536 18.2743Z" fill="white"/>
<path d="M32.2514 19.717C35.2239 21.8009 41.7126 25.7764 43.8891 25.0069C42.9824 27.0908 39.3853 28.9504 32.2514 19.717Z" fill="white"/>
<path d="M31.4959 20.9994C33.0073 23.0833 36.3928 27.2832 37.8438 27.4114C36.8864 28.5334 34.2768 28.8221 31.4959 20.9994Z" fill="white"/>
</svg>
