<svg width="28" height="41" viewBox="0 0 28 41" fill="none" xmlns="http://www.w3.org/2000/svg">
<path d="M14 28C9.78125 28 6.5 24.6406 6.5 20.5V8C6.5 3.85938 9.78125 0.5 14 0.5C18.1406 0.5 21.5 3.85938 21.5 8V20.5C21.5 24.7188 18.1406 28 14 28ZM25.875 15.5C26.8906 15.5 27.75 16.3594 27.75 17.375V20.5C27.75 27.4531 22.5156 33.2344 15.875 34.1719V36.75H19C20.4062 36.75 21.5 38 21.4219 39.4062C21.4219 40.0312 20.875 40.5 20.25 40.5H7.75C7.04688 40.5 6.5 40.0312 6.5 39.4062C6.42188 38 7.51562 36.75 9 36.75H12.125V34.0156C5.17188 33.0781 0.25 26.8281 0.25 19.875V17.375C0.25 16.3594 1.03125 15.5 2.125 15.5C3.14062 15.5 4 16.3594 4 17.375V20.1094C4 25.3438 8.14062 30.1875 13.2969 30.5C19.1562 30.8906 24 26.2812 24 20.5V17.375C24 16.3594 24.7812 15.5 25.875 15.5Z" fill="white"/>
</svg>
