<svg width="21" height="21" viewBox="0 0 21 21" fill="none" xmlns="http://www.w3.org/2000/svg">
<path d="M17.5 5.375C19.2188 5.375 20.625 6.78125 20.625 8.53906C20.625 9.78906 19.8438 10.8828 18.75 11.3906V14.4375C18.75 18.0703 15.6641 21 11.875 21C8.125 21 5.07812 18.1875 5 14.6328C2.14844 14.0469 0 11.5469 0 8.5V2.44531C0 2.01562 0.3125 1.625 0.742188 1.50781L3.20312 1.03906C3.71094 0.921875 4.17969 1.27344 4.29688 1.78125L4.41406 2.40625C4.53125 2.91406 4.17969 3.38281 3.67188 3.5L2.46094 3.73438V8.5C2.46094 10.6094 4.17969 12.2891 6.25 12.25C8.32031 12.25 9.96094 10.5312 9.96094 8.46094V3.73438L8.78906 3.5C8.28125 3.38281 7.92969 2.875 8.04688 2.36719L8.16406 1.78125C8.28125 1.27344 8.75 0.921875 9.25781 1.03906L11.7188 1.54688C12.1484 1.625 12.5 2.01562 12.5 2.44531V8.5C12.5 11.5469 10.3125 14.0469 7.5 14.6328C7.57812 16.7812 9.53125 18.5391 11.875 18.5391C14.2578 18.5391 16.25 16.7031 16.25 14.4766V11.3906C15.1172 10.8828 14.375 9.78906 14.375 8.5C14.375 6.78125 15.7422 5.375 17.5 5.375ZM17.5 9.4375C18.0078 9.4375 18.4375 9.04688 18.4375 8.5C18.4375 7.99219 18.0078 7.5625 17.5 7.5625C16.9531 7.5625 16.5625 7.99219 16.5625 8.5C16.5625 9.04688 16.9531 9.4375 17.5 9.4375Z" fill="white"/>
</svg>
