<svg width="56" height="29" viewBox="0 0 56 29" fill="none" xmlns="http://www.w3.org/2000/svg">
<path d="M25.76 16.3698C19.3618 16.0492 5.44671 12.4264 0.972947 0.5C-1.69722 5.95024 -0.478016 16.7545 25.76 16.3698Z" fill="#3CC8A1"/>
<path d="M23.6441 17.6522C18.7573 17.7056 7.92549 16.9469 3.69356 13.4844C3.39127 17.0644 6.95819 22.9101 23.6441 17.6522Z" fill="#3CC8A1"/>
<path d="M23.9465 18.7743C19.6641 20.1101 10.3135 22.333 7.16974 20.5376C7.5224 23.5299 11.3715 27.3664 23.9465 18.7743Z" fill="#3CC8A1"/>
<path d="M24.2485 20.217C21.276 22.3009 14.7873 26.2764 12.6107 25.5069C13.5176 27.5908 17.1147 29.4504 24.2485 20.217Z" fill="#3CC8A1"/>
<path d="M25.0042 21.4994C23.4928 23.5833 20.1073 27.7832 18.6563 27.9114C19.6137 29.0334 22.2233 29.3221 25.0042 21.4994Z" fill="#3CC8A1"/>
<path d="M30.24 16.3698C36.6383 16.0492 50.5532 12.4264 55.0271 0.5C57.6972 5.95024 56.4781 16.7545 30.24 16.3698Z" fill="#3CC8A1"/>
<path d="M32.356 17.6522C37.2429 17.7056 48.0747 16.9469 52.3066 13.4844C52.609 17.0644 49.0421 22.9101 32.356 17.6522Z" fill="#3CC8A1"/>
<path d="M32.0536 18.7743C36.3359 20.1101 45.6865 22.333 48.8304 20.5376C48.4776 23.5299 44.6287 27.3664 32.0536 18.7743Z" fill="#3CC8A1"/>
<path d="M31.7514 20.217C34.7239 22.3009 41.2126 26.2764 43.3891 25.5069C42.4824 27.5908 38.8853 29.4504 31.7514 20.217Z" fill="#3CC8A1"/>
<path d="M30.9959 21.4994C32.5073 23.5833 35.8928 27.7832 37.3438 27.9114C36.3864 29.0334 33.7768 29.3221 30.9959 21.4994Z" fill="#3CC8A1"/>
</svg>
