<svg width="25" height="26" viewBox="0 0 25 26" fill="none" xmlns="http://www.w3.org/2000/svg">
<path d="M21.2109 13C21.2109 13.7031 20.6641 14.25 20 14.25H8.00781L12.1094 18.3906C12.6172 18.8594 12.6172 19.6797 12.1094 20.1484C11.875 20.3828 11.5625 20.5 11.25 20.5C10.8984 20.5 10.5859 20.3828 10.3516 20.1484L4.10156 13.8984C3.59375 13.4297 3.59375 12.6094 4.10156 12.1406L10.3516 5.89062C10.8203 5.38281 11.6406 5.38281 12.1094 5.89062C12.6172 6.35938 12.6172 7.17969 12.1094 7.64844L8.00781 11.75H20C20.6641 11.75 21.2109 12.3359 21.2109 13Z" fill="white"/>
</svg>
