<svg width="19" height="16" viewBox="0 0 19 16" fill="none" xmlns="http://www.w3.org/2000/svg">
<path d="M17.8594 8.89844L11.6094 15.1484C11.375 15.3828 11.0625 15.5 10.75 15.5C10.3984 15.5 10.0859 15.3828 9.85156 15.1484C9.34375 14.6797 9.34375 13.8594 9.85156 13.3906L13.9531 9.25H2C1.29688 9.25 0.75 8.70312 0.75 8C0.75 7.33594 1.29688 6.75 2 6.75H13.9531L9.85156 2.64844C9.34375 2.17969 9.34375 1.35938 9.85156 0.890625C10.3203 0.382812 11.1406 0.382812 11.6094 0.890625L17.8594 7.14062C18.3672 7.60938 18.3672 8.42969 17.8594 8.89844Z" fill="white"/>
</svg>
